Coordinates
version=1
nRows=16
nColumns=40
inDegrees=yes

Units are S.I. units (second, meters, Newtons, ...)
Angles are in degrees.

endheader
time	pelvis_tilt	pelvis_list	pelvis_rotation	pelvis_tx	pelvis_ty	pelvis_tz	hip_flexion_r	hip_adduction_r	hip_rotation_r	knee_angle_r	knee_angle_r_beta	ankle_angle_r	subtalar_angle_r	mtp_angle_r	hip_flexion_l	hip_adduction_l	hip_rotation_l	knee_angle_l	knee_angle_l_beta	ankle_angle_l	subtalar_angle_l	mtp_angle_l	lumbar_extension	lumbar_bending	lumbar_rotation	arm_flex_r	arm_add_r	arm_rot_r	elbow_flex_r	pro_sup_r	wrist_flex_r	wrist_dev_r	arm_flex_l	arm_add_l	arm_rot_l	elbow_flex_l	pro_sup_l	wrist_flex_l	wrist_dev_l
     51.59800000	     -3.93903366	     -3.57149571	      5.68736443	      1.07212503	      0.93414765	      0.48862067	      8.67227356	      2.54689691	    -18.56368406	     13.71413764	     13.71413764	     10.74402191	      0.57302382	     -4.33155255	     29.82624681	    -10.36960959	     -1.17836772	     33.80537624	     33.80537624	      9.86504581	    -13.23032839	      7.48195199	    -10.19207623	      5.02504600	      2.51310714	     28.05698809	    -20.21017244	      0.10679960	     58.60264612	     45.36341436	      0.00000000	      0.00000000	      3.86646500	     -7.48598267	     -7.92779040	     31.40930142	     46.33321847	      0.00000000	      0.00000000
     51.61100000	     -4.14027030	     -3.57023088	      5.98982993	      1.07091199	      0.93389235	      0.48830074	      8.44989272	      2.58202724	    -18.72071117	     13.41415233	     13.41415233	     10.80044559	      0.47920011	     -4.42989555	     29.77872637	     -9.90750592	     -1.19722320	     29.82200565	     29.82200565	      9.78089265	    -11.59740144	      7.65596221	    -10.17498674	      5.07825922	      2.59325003	     29.22442025	    -20.18387984	      0.03763013	     59.22933774	     45.35118508	      0.00000000	      0.00000000	      3.08397733	     -7.34228058	     -7.78113744	     30.85843466	     46.29785582	      0.00000000	      0.00000000
     51.62400000	     -4.47010860	     -3.74586280	      6.31362861	      1.06958313	      0.93324476	      0.48789845	      8.45875812	      2.76169147	    -18.95627448	     13.24055143	     13.24055143	     10.86579821	      0.36464314	     -4.51811684	     30.00078602	     -9.57796142	     -1.08257783	     26.20838051	     26.20838051	      9.63518860	     -9.89071399	      8.02348374	     -9.97510661	      5.33593375	      2.77868185	     30.28563000	    -20.34053508	     -0.07445637	     59.71537337	     45.34461167	      0.00000000	      0.00000000	      2.36530337	     -7.09024223	     -7.69248152	     30.44493149	     46.27255213	      0.00000000	      0.00000000
     51.63700000	     -4.51450635	     -3.67628521	      6.57780327	      1.06864661	      0.93317921	      0.48743828	      7.93930854	      2.75914157	    -19.11914564	     12.73899295	     12.73899295	     10.85856926	      0.50028865	     -4.82535636	     29.61906052	     -9.11614675	     -1.42752767	     22.50385705	     22.50385705	      9.08516607	     -7.86257756	      7.28873282	    -10.10340944	      5.26552196	      2.54978612	     31.40512344	    -19.91575652	     -0.02982542	     60.32084437	     45.33155908	      0.00000000	      0.00000000	      1.67669127	     -7.11260814	     -7.33995590	     29.36215804	     46.20610976	      0.00000000	      0.00000000
     51.65000000	     -4.73196421	     -3.71715874	      6.84589478	      1.06745037	      0.93273384	      0.48683266	      7.82249642	      2.78831114	    -19.23289878	     12.61430758	     12.61430758	     10.97950856	      0.39036600	     -4.91973375	     29.65439549	     -8.67767656	     -1.51261225	     19.49854089	     19.49854089	      8.75130423	     -6.20582906	      7.68908240	    -10.02638120	      5.32795135	      2.71854306	     32.21859709	    -19.89742679	     -0.11300249	     60.75098918	     45.32498637	      0.00000000	      0.00000000	      1.01855809	     -6.97514028	     -7.27642430	     28.99133380	     46.18522617	      0.00000000	      0.00000000
     51.66300000	     -4.90284685	     -3.79114440	      7.10126851	      1.06635303	      0.93231502	      0.48617602	      7.62115349	      2.86706231	    -19.40291702	     12.42460157	     12.42460157	     11.11040558	      0.35495166	     -4.98878342	     29.72202371	     -8.29909042	     -1.64555466	     17.06579126	     17.06579126	      8.44197145	     -4.70332377	      7.99995658	     -9.97134366	      5.37707113	      2.75674446	     33.00448258	    -19.72966239	     -0.20213912	     61.22512852	     45.31692544	      0.00000000	      0.00000000	      0.39222003	     -6.86366868	     -7.21244346	     28.58279548	     46.16513852	      0.00000000	      0.00000000
     51.67600000	     -5.01449937	     -3.83149551	      7.35449659	      1.06532221	      0.93201609	      0.48535170	      7.33478741	      2.90488360	    -19.56501849	     12.21786438	     12.21786438	     11.25906431	      0.38069122	     -5.03992740	     29.81229218	     -7.91151588	     -1.87467854	     15.27399196	     15.27399196	      8.07417219	     -3.45630033	      8.18122906	     -9.97910772	      5.41234639	      2.72115403	     33.72135927	    -19.47145227	     -0.31816274	     61.68118305	     45.31041442	      0.00000000	      0.00000000	     -0.21032549	     -6.79913078	     -7.14704820	     28.14532209	     46.14556922	      0.00000000	      0.00000000
     51.68900000	     -5.09754137	     -3.94005858	      7.59800294	      1.06425419	      0.93149307	      0.48454126	      7.10848579	      3.00587348	    -19.68563311	     12.17604498	     12.17604498	     11.53352488	      0.28785331	     -5.10938069	     30.36754219	     -7.60615612	     -1.82288916	     14.87695068	     14.87695068	      7.88936118	     -3.12227790	      8.23795689	     -9.99237774	      5.46530249	      3.06838461	     34.12879222	    -19.45982144	     -0.35710332	     61.83781236	     45.30862247	      0.00000000	      0.00000000	     -0.61687564	     -6.73302679	     -7.14450769	     27.99625095	     46.13778557	      0.00000000	      0.00000000
     51.70200000	     -5.24072014	     -3.96266815	      7.80833290	      1.06337789	      0.93136275	      0.48352647	      6.79829477	      3.01922567	    -19.85816098	     11.88252950	     11.88252950	     11.60848501	      0.48324014	     -5.03643227	     30.32514673	     -7.25678953	     -2.29700454	     13.81436704	     13.81436704	      7.31467387	     -2.23976881	      8.03995624	     -9.93576442	      5.48297461	      2.67335612	     34.86495813	    -18.91071305	     -0.60834637	     62.40975378	     45.30401745	      0.00000000	      0.00000000	     -1.22288521	     -6.67218517	     -7.02230340	     27.42404128	     46.11016483	      0.00000000	      0.00000000
     51.71500000	     -5.31324868	     -4.02210685	      8.00356797	      1.06257920	      0.93109726	      0.48248447	      6.54224407	      3.05668186	    -19.94949900	     11.84681305	     11.84681305	     11.83511728	      0.40768576	     -5.08210854	     30.52850340	     -6.96448036	     -2.43406735	     13.87790397	     13.87790397	      7.00519039	     -2.23654681	      8.10466931	     -9.90060084	      5.49193263	      2.94619588	     35.03690855	    -18.83282499	     -0.60857433	     62.47999584	     45.30252044	      0.00000000	      0.00000000	     -1.49725587	     -6.64672347	     -7.02490753	     27.31448180	     46.10597150	      0.00000000	      0.00000000
     51.72800000	     -5.41505753	     -4.10042839	      8.11204679	      1.06196206	      0.93061462	      0.48133726	      6.21182509	      3.12015140	    -20.04217979	     11.63010067	     11.63010067	     12.05787797	      0.63297203	     -4.88673864	     30.90210749	     -6.76654271	     -2.65353021	     14.70272015	     14.70272015	      6.46217422	     -2.71201291	      7.10569083	     -9.82104892	      5.50235371	      2.67015813	     35.49022435	    -18.20999857	     -0.93994135	     62.90571972	     45.30510374	      0.00000000	      0.00000000	     -2.05715294	     -6.61808783	     -6.86649834	     26.82899809	     46.07325569	      0.00000000	      0.00000000
     51.74100000	     -5.41866753	     -4.03699763	      8.11932674	      1.06163917	      0.93032420	      0.48017012	      5.81497771	      3.03533405	    -19.93450327	     11.56593806	     11.56593806	     12.34050477	      0.67138843	     -4.89606158	     30.87446513	     -6.50481036	     -2.91935602	     15.55790508	     15.55790508	      6.13504371	     -3.27661000	      6.93707441	     -9.81485943	      5.32535464	      2.89858243	     35.54416621	    -18.04964423	     -0.96079488	     62.96794749	     45.30439350	      0.00000000	      0.00000000	     -2.42230019	     -6.59263359	     -6.84998680	     26.66948646	     46.06455283	      0.00000000	      0.00000000
     51.75400000	     -5.40194840	     -4.22250261	      8.16611696	      1.06145282	      0.92964884	      0.47893794	      5.43181350	      3.21317044	    -19.93189784	     11.52117627	     11.52117627	     12.64734547	      0.74875519	     -4.83268335	     31.03580184	     -6.48412776	     -2.76631951	     17.03816755	     17.03816755	      5.81986808	     -4.26231894	      6.44738551	     -9.74434087	      5.48307241	      2.96128357	     35.60307316	    -17.72263320	     -1.03546204	     63.12454730	     45.30302086	      0.00000000	      0.00000000	     -2.70103198	     -6.62753528	     -6.79578662	     26.52889753	     46.05171393	      0.00000000	      0.00000000
     51.76700000	     -5.36698175	     -4.38745401	      8.11612336	      1.06158719	      0.92885068	      0.47773410	      5.00446560	      3.37846519	    -19.82426193	     11.48689000	     11.48689000	     13.04990281	      0.82696023	     -4.75129720	     30.98636730	     -6.48983553	     -2.61275240	     18.49337808	     18.49337808	      5.51479497	     -5.37703077	      6.01907976	     -9.67491755	      5.50559422	      3.09410102	     35.51967065	    -17.38271045	     -1.08229567	     63.23776719	     45.30162194	      0.00000000	      0.00000000	     -3.05270489	     -6.64909388	     -6.73750269	     26.42288536	     46.03674863	      0.00000000	      0.00000000
     51.78000000	     -5.29117675	     -4.43167245	      7.94991319	      1.06201709	      0.92806441	      0.47647787	      4.52262092	      3.41373811	    -19.60309814	     11.49580569	     11.49580569	     13.48294996	      0.89290301	     -4.75294614	     30.60992455	     -6.43793126	     -2.55847768	     19.70229056	     19.70229056	      5.28826957	     -6.23302958	      5.84389877	     -9.60016618	      5.42497815	      3.31678048	     35.24756242	    -17.06758544	     -1.03015595	     63.23899556	     45.29889786	      0.00000000	      0.00000000	     -3.36262936	     -6.70086192	     -6.72084627	     26.35734221	     46.02901195	      0.00000000	      0.00000000
     51.79300000	     -5.22775515	     -4.51359210	      7.71079992	      1.06266691	      0.92719884	      0.47520728	      4.06284946	      3.46882286	    -19.32023776	     11.54921464	     11.54921464	     13.92058824	      0.98074146	     -4.83064881	     30.07669248	     -6.46035790	     -2.53192536	     20.67202904	     20.67202904	      5.16946106	     -6.88210231	      5.77413246	     -9.47730298	      5.39150344	      3.57256413	     34.81862993	    -16.74114327	     -0.92444906	     63.16880501	     45.29542929	      0.00000000	      0.00000000	     -3.72043457	     -6.75730144	     -6.73079097	     26.26415573	     46.02463839	      0.00000000	      0.00000000
